<svg width="20" height="32" viewBox="0 0 20 32" fill="none" xmlns="http://www.w3.org/2000/svg">
<g opacity="0.310879">
<mask id="path-1-inside-1_22_84" fill="white">
<path d="M0 10C0 4.47715 4.47715 0 10 0C15.5228 0 20 4.47715 20 10V22C20 27.5228 15.5228 32 10 32C4.47715 32 0 27.5228 0 22V10Z"/>
</mask>
<path d="M20 10H18V22H20H22V10H20ZM0 22H2V10H0H-2V22H0ZM10 32V30C5.58172 30 2 26.4183 2 22H0H-2C-2 28.6274 3.37258 34 10 34V32ZM20 22H18C18 26.4183 14.4183 30 10 30V32V34C16.6274 34 22 28.6274 22 22H20ZM10 0V2C14.4183 2 18 5.58172 18 10H20H22C22 3.37258 16.6274 -2 10 -2V0ZM10 0V-2C3.37258 -2 -2 3.37258 -2 10H0H2C2 5.58172 5.58172 2 10 2V0Z" fill="#51A2FF" fill-opacity="0.3" mask="url(#path-1-inside-1_22_84)"/>
<path d="M8 10.261C8 9.15642 8.89543 8.26099 10 8.26099C11.1046 8.26099 12 9.15642 12 10.261V14.261C12 15.3656 11.1046 16.261 10 16.261C8.89543 16.261 8 15.3656 8 14.261V10.261Z" fill="#51A2FF"/>
</g>
</svg>
