<svg width="40" height="40" viewBox="0 0 40 40" fill="none" xmlns="http://www.w3.org/2000/svg">
<path d="M24.9993 3.33325H9.99935C9.11529 3.33325 8.26745 3.68444 7.64233 4.30956C7.0172 4.93468 6.66602 5.78253 6.66602 6.66659V33.3333C6.66602 34.2173 7.0172 35.0652 7.64233 35.6903C8.26745 36.3154 9.11529 36.6666 9.99935 36.6666H29.9993C30.8834 36.6666 31.7312 36.3154 32.3564 35.6903C32.9815 35.0652 33.3327 34.2173 33.3327 33.3333V11.6666L24.9993 3.33325Z" stroke="#45556C" stroke-width="3.33333" stroke-linecap="round" stroke-linejoin="round"/>
<path d="M23.334 3.33325V9.99992C23.334 10.884 23.6852 11.7318 24.3103 12.3569C24.9354 12.9821 25.7833 13.3333 26.6673 13.3333H33.334" stroke="#45556C" stroke-width="3.33333" stroke-linecap="round" stroke-linejoin="round"/>
<path d="M16.6673 15H13.334" stroke="#45556C" stroke-width="3.33333" stroke-linecap="round" stroke-linejoin="round"/>
<path d="M26.6673 21.6667H13.334" stroke="#45556C" stroke-width="3.33333" stroke-linecap="round" stroke-linejoin="round"/>
<path d="M26.6673 28.3333H13.334" stroke="#45556C" stroke-width="3.33333" stroke-linecap="round" stroke-linejoin="round"/>
</svg>
