<svg width="28" height="28" viewBox="0 0 28 28" fill="none" xmlns="http://www.w3.org/2000/svg">
<path d="M3.5 8.16667V5.83333C3.5 5.21449 3.74583 4.621 4.18342 4.18342C4.621 3.74583 5.21449 3.5 5.83333 3.5H8.16667" stroke="#C27AFF" stroke-opacity="0.5" stroke-width="2.33333" stroke-linecap="round" stroke-linejoin="round"/>
<path d="M19.834 3.5H22.1673C22.7862 3.5 23.3796 3.74583 23.8172 4.18342C24.2548 4.621 24.5007 5.21449 24.5007 5.83333V8.16667" stroke="#C27AFF" stroke-opacity="0.5" stroke-width="2.33333" stroke-linecap="round" stroke-linejoin="round"/>
<path d="M24.5007 19.8333V22.1666C24.5007 22.7854 24.2548 23.3789 23.8172 23.8165C23.3796 24.2541 22.7862 24.4999 22.1673 24.4999H19.834" stroke="#C27AFF" stroke-opacity="0.5" stroke-width="2.33333" stroke-linecap="round" stroke-linejoin="round"/>
<path d="M8.16667 24.4999H5.83333C5.21449 24.4999 4.621 24.2541 4.18342 23.8165C3.74583 23.3789 3.5 22.7854 3.5 22.1666V19.8333" stroke="#C27AFF" stroke-opacity="0.5" stroke-width="2.33333" stroke-linecap="round" stroke-linejoin="round"/>
</svg>
